<svg xmlns="http://www.w3.org/2000/svg" xmlns:xlink="http://www.w3.org/1999/xlink" viewBox="0 0 809.85 925.54"><defs><style>.a{fill:url(#a);}</style><linearGradient id="a" x1="60.65" y1="231.85" x2="816.26" y2="869.91" gradientUnits="userSpaceOnUse"><stop offset="0" stop-color="#f34a4a"/><stop offset="1" stop-color="#a81212"/></linearGradient></defs><path class="a" d="M404.92,925.54A115.67,115.67,0,0,0,520.56,809.85H289.29A115.67,115.67,0,0,0,404.92,925.54ZM794.28,654.91C759.36,617.38,694,560.93,694,376c0-140.46-98.48-252.9-231.28-280.48V57.85a57.81,57.81,0,1,0-115.62,0V95.52C214.32,123.1,115.84,235.54,115.84,376c0,184.93-65.35,241.38-100.27,278.91A56.47,56.47,0,0,0,0,694.15C.2,723.8,23.47,752,58,752H751.82c34.56,0,57.85-28.2,58-57.85A56.44,56.44,0,0,0,794.28,654.91Z"/></svg>