<?xml version="1.0" encoding="utf-8"?>
<!-- Generator: Adobe Illustrator 26.0.2, SVG Export Plug-In . SVG Version: 6.00 Build 0)  -->
<svg version="1.1" id="Layer_1" xmlns="http://www.w3.org/2000/svg" xmlns:xlink="http://www.w3.org/1999/xlink" x="0px" y="0px"
	 viewBox="0 0 3200 1535.7" style="enable-background:new 0 0 3200 1535.7;" xml:space="preserve">
<style type="text/css">
	.st0{fill:url(#SVGID_1_);stroke:url(#SVGID_00000117636618794301839650000001075381613118931357_);stroke-miterlimit:10;}
	
		.st1{fill:url(#SVGID_00000001656585617993669560000009667567234732445091_);stroke:url(#SVGID_00000113334434733165466380000011813688410885231764_);stroke-miterlimit:10;}
	
		.st2{fill:url(#SVGID_00000111149976155124030370000018115400874358957983_);stroke:url(#SVGID_00000065796758513143904690000016202793623900570272_);stroke-miterlimit:10;}
	
		.st3{fill:url(#SVGID_00000047772535761347449630000002393557036140600208_);stroke:url(#SVGID_00000049911946651842222030000013342213454558575775_);stroke-miterlimit:10;}
	.st4{fill:url(#SVGID_00000037656221288347742230000015997253378013812919_);}
	
		.st5{fill:url(#SVGID_00000156584166996729666400000014578405108286279315_);stroke:url(#SVGID_00000096029011609370658550000004402638513887664559_);stroke-miterlimit:10;}
	
		.st6{fill:url(#SVGID_00000002381882330142642490000008758760833354617787_);stroke:url(#SVGID_00000073708552490421399220000005236784561286472844_);stroke-miterlimit:10;}
	
		.st7{fill:url(#SVGID_00000022550364907224220760000001772100302632605616_);stroke:url(#SVGID_00000025433136887988907920000011107570170889708957_);stroke-miterlimit:10;}
	.st8{fill:#8D6B3A;}
</style>
<g>
	<linearGradient id="SVGID_1_" gradientUnits="userSpaceOnUse" x1="1909.5106" y1="706.3007" x2="2556.4734" y2="706.3007">
		<stop  offset="0" style="stop-color:#6C471D"/>
		<stop  offset="0.7091" style="stop-color:#DEC481"/>
	</linearGradient>
	
		<linearGradient id="SVGID_00000021090502071329723850000000127289429526950795_" gradientUnits="userSpaceOnUse" x1="1908.8431" y1="706.3007" x2="2557.3105" y2="706.3007">
		<stop  offset="0" style="stop-color:#6C471D"/>
		<stop  offset="4.053517e-03" style="stop-color:#734E23"/>
		<stop  offset="2.698976e-02" style="stop-color:#987241"/>
		<stop  offset="5.185240e-02" style="stop-color:#B8915B"/>
		<stop  offset="7.866801e-02" style="stop-color:#D2AA70"/>
		<stop  offset="0.1081" style="stop-color:#E6BD80"/>
		<stop  offset="0.1417" style="stop-color:#F4CB8B"/>
		<stop  offset="0.1829" style="stop-color:#FDD392"/>
		<stop  offset="0.2535" style="stop-color:#FFD594"/>
		<stop  offset="0.2892" style="stop-color:#EAC284"/>
		<stop  offset="0.3848" style="stop-color:#B8935C"/>
		<stop  offset="0.4572" style="stop-color:#997643"/>
		<stop  offset="0.4975" style="stop-color:#8D6B3A"/>
		<stop  offset="0.59" style="stop-color:#92703E"/>
		<stop  offset="0.7032" style="stop-color:#A17E4A"/>
		<stop  offset="0.8272" style="stop-color:#BA955E"/>
		<stop  offset="0.958" style="stop-color:#DCB579"/>
		<stop  offset="1" style="stop-color:#E9C183"/>
	</linearGradient>
	
		<path style="fill:url(#SVGID_1_);stroke:url(#SVGID_00000021090502071329723850000000127289429526950795_);stroke-miterlimit:10;" d="
		M2259.5,805.6l-87.9-43.9l88-44.5l0,0l296.8-145.2l-25.2-26.1c-11.9-11.9-22.2-5.6-33.4,0l-253.5,123.9l0,0l-4.7,2.4l-2.1,1.1v0
		l-120.7,61l-134.8-67.4l0,0l-29.9-15c-11.2-5.6-24.8-1.1-30.4,10.1l-11.9,23.7l42.3,21.3l0,0l2.9,1.4l17.8,9l0,0l89.4,44.7
		l-42.1,21.3l-51.6,25l-59,28.4l11.5,23.9c5.4,11.3,19,16,30.3,10.6l24.8-11.9l0,0l3-1.5l15.3-7.4l0-0.1l43.6-21.2
		c0.5-0.2,0.9-0.4,1.4-0.6l3.4-1.7l5.1-2.5c0.3-0.2,0.6-0.4,0.9-0.5l68.3-34.5l132.2,66.1l0,0l31.2,15.6c11.2,5.6,24.8,1,30.4-10.2
		l11.8-23.7L2259.5,805.6L2259.5,805.6z"/>
	
		<linearGradient id="SVGID_00000026145438961643578840000006634375104805004686_" gradientUnits="userSpaceOnUse" x1="2477.9663" y1="761.4165" x2="2526.8145" y2="761.4165">
		<stop  offset="0" style="stop-color:#6C471D"/>
		<stop  offset="0.7091" style="stop-color:#DEC481"/>
	</linearGradient>
	
		<linearGradient id="SVGID_00000114064455700550569500000017957567511286792068_" gradientUnits="userSpaceOnUse" x1="2477.4663" y1="761.4165" x2="2527.3145" y2="761.4165">
		<stop  offset="0" style="stop-color:#6C471D"/>
		<stop  offset="4.053517e-03" style="stop-color:#734E23"/>
		<stop  offset="2.698976e-02" style="stop-color:#987241"/>
		<stop  offset="5.185240e-02" style="stop-color:#B8915B"/>
		<stop  offset="7.866801e-02" style="stop-color:#D2AA70"/>
		<stop  offset="0.1081" style="stop-color:#E6BD80"/>
		<stop  offset="0.1417" style="stop-color:#F4CB8B"/>
		<stop  offset="0.1829" style="stop-color:#FDD392"/>
		<stop  offset="0.2535" style="stop-color:#FFD594"/>
		<stop  offset="0.2892" style="stop-color:#EAC284"/>
		<stop  offset="0.3848" style="stop-color:#B8935C"/>
		<stop  offset="0.4572" style="stop-color:#997643"/>
		<stop  offset="0.4975" style="stop-color:#8D6B3A"/>
		<stop  offset="0.59" style="stop-color:#92703E"/>
		<stop  offset="0.7032" style="stop-color:#A17E4A"/>
		<stop  offset="0.8272" style="stop-color:#BA955E"/>
		<stop  offset="0.958" style="stop-color:#DCB579"/>
		<stop  offset="1" style="stop-color:#E9C183"/>
	</linearGradient>
	
		<path style="fill:url(#SVGID_00000026145438961643578840000006634375104805004686_);stroke:url(#SVGID_00000114064455700550569500000017957567511286792068_);stroke-miterlimit:10;" d="
		M2478,649v202.2c0,12.4,10.1,22.5,22.5,22.5h26.3V671.6c0-12.4-10.1-22.5-22.5-22.5H2478z"/>
	
		<linearGradient id="SVGID_00000038411040470731882050000002467367856221273016_" gradientUnits="userSpaceOnUse" x1="836.246" y1="761.4165" x2="1250.9462" y2="761.4165">
		<stop  offset="0" style="stop-color:#6C471D"/>
		<stop  offset="0.7091" style="stop-color:#DEC481"/>
	</linearGradient>
	
		<linearGradient id="SVGID_00000018937728875179141710000004987214668703903420_" gradientUnits="userSpaceOnUse" x1="835.746" y1="761.4165" x2="1251.4462" y2="761.4165">
		<stop  offset="0" style="stop-color:#6C471D"/>
		<stop  offset="4.053517e-03" style="stop-color:#734E23"/>
		<stop  offset="2.698976e-02" style="stop-color:#987241"/>
		<stop  offset="5.185240e-02" style="stop-color:#B8915B"/>
		<stop  offset="7.866801e-02" style="stop-color:#D2AA70"/>
		<stop  offset="0.1081" style="stop-color:#E6BD80"/>
		<stop  offset="0.1417" style="stop-color:#F4CB8B"/>
		<stop  offset="0.1829" style="stop-color:#FDD392"/>
		<stop  offset="0.2535" style="stop-color:#FFD594"/>
		<stop  offset="0.2892" style="stop-color:#EAC284"/>
		<stop  offset="0.3848" style="stop-color:#B8935C"/>
		<stop  offset="0.4572" style="stop-color:#997643"/>
		<stop  offset="0.4975" style="stop-color:#8D6B3A"/>
		<stop  offset="0.59" style="stop-color:#92703E"/>
		<stop  offset="0.7032" style="stop-color:#A17E4A"/>
		<stop  offset="0.8272" style="stop-color:#BA955E"/>
		<stop  offset="0.958" style="stop-color:#DCB579"/>
		<stop  offset="1" style="stop-color:#E9C183"/>
	</linearGradient>
	
		<path style="fill:url(#SVGID_00000038411040470731882050000002467367856221273016_);stroke:url(#SVGID_00000018937728875179141710000004987214668703903420_);stroke-miterlimit:10;" d="
		M1244.6,722c-4.2-13.2-10.4-25.2-18.6-36.1c-8.1-10.8-18-19.7-29.5-26.5c-11.5-6.9-24.6-10.3-39.2-10.3H943.1v0.1h-74.3
		c-11.2,0-19.4,1.5-24.7,4.6c-5.3,3.1-7.9,9.3-7.9,18.5l0.1,26.4l211.1-0.2v0h99.2c11.5,0,21,2.1,28.5,6.4
		c7.5,4.3,13.3,9.5,17.6,15.7c4.2,6.2,7.1,13,8.6,20.3c1.5,7.4,2.3,14.2,2.3,20.3c0,6.2-0.8,13-2.3,20.3c-1.5,7.4-4.4,14.2-8.6,20.3
		c-4.2,6.2-10.1,11.4-17.6,15.7c-7.5,4.3-17,6.4-28.5,6.4H885.1v-86.1h-26.3c-12.4,0-22.5,10.1-22.5,22.5V849c0,7.6,2.9,13.9,8.7,19
		c4.3,3.8,10,5.7,15.7,5.7h301.7c13.9-0.7,26.3-4.5,37.1-11.6c10.9-7,20.1-15.9,27.7-26.5c7.6-10.6,13.5-22.5,17.6-35.5
		c4.1-13,6.1-25.9,6.1-38.6C1250.9,748.4,1248.8,735.2,1244.6,722z"/>
	
		<linearGradient id="SVGID_00000135690438353322185350000000393899994208422018_" gradientUnits="userSpaceOnUse" x1="1395.1257" y1="761.5157" x2="1771.0457" y2="761.5157">
		<stop  offset="0" style="stop-color:#6C471D"/>
		<stop  offset="0.7091" style="stop-color:#DEC481"/>
	</linearGradient>
	
		<linearGradient id="SVGID_00000031887932033599116110000015540654990694528146_" gradientUnits="userSpaceOnUse" x1="1394.6257" y1="761.5157" x2="1771.5457" y2="761.5157">
		<stop  offset="0" style="stop-color:#6C471D"/>
		<stop  offset="4.053517e-03" style="stop-color:#734E23"/>
		<stop  offset="2.698976e-02" style="stop-color:#987241"/>
		<stop  offset="5.185240e-02" style="stop-color:#B8915B"/>
		<stop  offset="7.866801e-02" style="stop-color:#D2AA70"/>
		<stop  offset="0.1081" style="stop-color:#E6BD80"/>
		<stop  offset="0.1417" style="stop-color:#F4CB8B"/>
		<stop  offset="0.1829" style="stop-color:#FDD392"/>
		<stop  offset="0.2535" style="stop-color:#FFD594"/>
		<stop  offset="0.2892" style="stop-color:#EAC284"/>
		<stop  offset="0.3848" style="stop-color:#B8935C"/>
		<stop  offset="0.4572" style="stop-color:#997643"/>
		<stop  offset="0.4975" style="stop-color:#8D6B3A"/>
		<stop  offset="0.59" style="stop-color:#92703E"/>
		<stop  offset="0.7032" style="stop-color:#A17E4A"/>
		<stop  offset="0.8272" style="stop-color:#BA955E"/>
		<stop  offset="0.958" style="stop-color:#DCB579"/>
		<stop  offset="1" style="stop-color:#E9C183"/>
	</linearGradient>
	
		<path style="fill:url(#SVGID_00000135690438353322185350000000393899994208422018_);stroke:url(#SVGID_00000031887932033599116110000015540654990694528146_);stroke-miterlimit:10;" d="
		M1769,844.7c-1.4-2.9-3.1-5.6-5.1-8l-123.6-167.4c-5.8-7.9-13.2-14.1-22.4-18.5c-9.2-4.5-18.8-6.7-29-6.7c-10.9,0-21,2.5-30.5,7.5
		c-9.5,5-17.1,11.4-22.9,19.3l-137.8,187.2c-6.3,8.6-0.3,20.8,10.3,20.8h35.1L1569.6,709c2-2.7,4.8-5.7,8.4-9
		c3.6-3.3,7.2-4.9,10.9-4.9c3.7,0,7.4,1.6,10.9,4.9c3.6,3.3,6.5,6.3,8.9,9l87.2,117.8h-121.5c-0.4,0-0.7,0.1-1,0.1h-23.1
		c-12.4,0-22.5,10.6-22.5,23.7v28.3h46.6h126h45c0.2,0,0.3,0.1,0.4,0.1h1.1c5.6,0,11.1-1.9,15.3-5.6c5.8-5.1,8.7-11.4,8.7-19
		C1771,850.8,1770.4,847.7,1769,844.7z"/>
	<g>
		
			<linearGradient id="SVGID_00000078732190035094795540000012321477975423255683_" gradientUnits="userSpaceOnUse" x1="3092.8779" y1="632.1311" x2="3171.1497" y2="632.1311">
			<stop  offset="0" style="stop-color:#6C471D"/>
			<stop  offset="0.7091" style="stop-color:#DEC481"/>
		</linearGradient>
		<path style="fill:url(#SVGID_00000078732190035094795540000012321477975423255683_);" d="M3092.9,632.3c0-5.4,1-10.4,3.1-15.2
			c2.1-4.7,4.9-8.9,8.4-12.4c3.5-3.5,7.7-6.3,12.4-8.3c4.7-2.1,9.8-3.1,15.2-3.1c5.4,0,10.4,1,15.2,3.1c4.7,2.1,8.9,4.8,12.4,8.3
			c3.5,3.5,6.4,7.6,8.4,12.4c2.1,4.8,3.1,9.8,3.1,15.2c0,5.4-1,10.4-3.1,15.1c-2.1,4.7-4.9,8.8-8.4,12.3c-3.5,3.5-7.7,6.2-12.4,8.2
			c-4.7,2-9.8,3-15.2,3c-5.4,0-10.4-1-15.2-3c-4.7-2-8.9-4.7-12.4-8.2c-3.5-3.5-6.3-7.6-8.4-12.3
			C3093.9,642.7,3092.9,637.7,3092.9,632.3z M3099.1,632.3c0,4.5,0.9,8.7,2.6,12.7c1.7,4,4.1,7.5,7,10.6c3,3,6.5,5.4,10.5,7.1
			c4,1.7,8.3,2.6,12.9,2.6c4.6,0,8.9-0.9,12.9-2.6c4-1.7,7.5-4.1,10.5-7.1c3-3,5.3-6.5,7-10.6c1.7-4,2.6-8.2,2.6-12.7
			c0-4.6-0.9-8.9-2.6-12.9c-1.7-4-4.1-7.5-7-10.5c-3-3-6.5-5.3-10.5-7c-4-1.7-8.3-2.6-12.9-2.6c-4.6,0-8.9,0.9-12.9,2.6
			c-4,1.7-7.5,4.1-10.5,7c-3,3-5.3,6.5-7,10.5C3099.9,623.4,3099.1,627.7,3099.1,632.3z M3141.5,653.8l-9.4-17h-6.2v17h-10.5v-43.9
			h18.9c2.1,0,4.1,0.2,6,0.7c1.9,0.5,3.7,1.2,5.3,2.2c1.6,1,2.9,2.4,3.9,4.2c1,1.8,1.5,4,1.5,6.6c0,3-0.8,5.4-2.5,7.4
			c-1.7,1.9-3.7,3.4-6.3,4.3l11.7,18.5H3141.5z M3133.9,629.2c1.6,0,3.1-0.5,4.4-1.5c1.3-1,2-2.4,2-4.1c0-1.8-0.7-3.1-2.2-3.9
			c-1.5-0.8-2.9-1.2-4.1-1.2h-8.1v10.8H3133.9z"/>
	</g>
	
		<linearGradient id="SVGID_00000005968413598362569160000016626491770957494403_" gradientUnits="userSpaceOnUse" x1="2682.0227" y1="761.4165" x2="3096.2139" y2="761.4165">
		<stop  offset="0" style="stop-color:#6C471D"/>
		<stop  offset="0.7091" style="stop-color:#DEC481"/>
	</linearGradient>
	
		<linearGradient id="SVGID_00000072987434487971887870000001736747257390993809_" gradientUnits="userSpaceOnUse" x1="2681.5227" y1="761.4165" x2="3096.7139" y2="761.4165">
		<stop  offset="0" style="stop-color:#6C471D"/>
		<stop  offset="4.053517e-03" style="stop-color:#734E23"/>
		<stop  offset="2.698976e-02" style="stop-color:#987241"/>
		<stop  offset="5.185240e-02" style="stop-color:#B8915B"/>
		<stop  offset="7.866801e-02" style="stop-color:#D2AA70"/>
		<stop  offset="0.1081" style="stop-color:#E6BD80"/>
		<stop  offset="0.1417" style="stop-color:#F4CB8B"/>
		<stop  offset="0.1829" style="stop-color:#FDD392"/>
		<stop  offset="0.2535" style="stop-color:#FFD594"/>
		<stop  offset="0.2892" style="stop-color:#EAC284"/>
		<stop  offset="0.3848" style="stop-color:#B8935C"/>
		<stop  offset="0.4572" style="stop-color:#997643"/>
		<stop  offset="0.4975" style="stop-color:#8D6B3A"/>
		<stop  offset="0.59" style="stop-color:#92703E"/>
		<stop  offset="0.7032" style="stop-color:#A17E4A"/>
		<stop  offset="0.8272" style="stop-color:#BA955E"/>
		<stop  offset="0.958" style="stop-color:#DCB579"/>
		<stop  offset="1" style="stop-color:#E9C183"/>
	</linearGradient>
	
		<path style="fill:url(#SVGID_00000005968413598362569160000016626491770957494403_);stroke:url(#SVGID_00000072987434487971887870000001736747257390993809_);stroke-miterlimit:10;" d="
		M3090.1,722.8c-4.1-13-9.9-24.9-17.5-35.5c-7.6-10.6-16.9-19.5-27.7-26.5c-10.9-7-23.2-10.9-37.1-11.6h-80.4v49.4h64.6
		c11.5,0,21,2.2,28.5,6.4c7.5,4.3,13.3,9.5,17.5,15.7c4.2,6.2,7.1,13,8.6,20.3c1.5,7.4,2.3,14.2,2.3,20.3c0,6.2-0.8,13-2.3,20.3
		c-1.5,7.4-4.4,14.2-8.6,20.3c-4.2,6.2-10.1,11.4-17.5,15.7c-7.5,4.3-17,6.4-28.5,6.4h-205.6c-11.9,0-21.5-2.1-28.7-6.4
		c-7.3-4.3-13.1-9.5-17.3-15.7c-4.2-6.2-7.1-13-8.6-20.3c-1.5-7.4-2.3-14.2-2.3-20.3c0-6.2,0.8-13,2.3-20.3
		c1.5-7.4,4.4-14.2,8.6-20.3c4.2-6.2,10-11.4,17.3-15.7c7.3-4.3,16.9-6.4,28.7-6.4h56.1v-49.4h-66.8c-14.6,0-27.6,3.4-39.2,10.3
		c-11.5,6.9-21.4,15.7-29.5,26.5c-8.1,10.8-14.3,22.8-18.6,36.1c-4.2,13.2-6.4,26.4-6.4,39.4c0,12.7,2,25.6,6.1,38.6
		c4.1,13.1,9.9,24.9,17.6,35.5c7.6,10.7,16.9,19.5,27.7,26.5c10.9,7,23.2,10.9,37.1,11.6h232c14.6,0,27.6-3.4,39.2-10.3
		c11.5-6.9,21.4-15.7,29.5-26.5c8.1-10.8,14.3-22.8,18.6-36.1c4.2-13.2,6.4-26.4,6.4-39.4C3096.2,748.7,3094.2,735.8,3090.1,722.8z"
		/>
	
		<linearGradient id="SVGID_00000152967604368806289110000003183746633230667922_" gradientUnits="userSpaceOnUse" x1="2859.1104" y1="681.6378" x2="2911.5583" y2="681.6378">
		<stop  offset="0" style="stop-color:#6C471D"/>
		<stop  offset="0.7091" style="stop-color:#DEC481"/>
	</linearGradient>
	
		<linearGradient id="SVGID_00000142872345375302037540000003085742243479741096_" gradientUnits="userSpaceOnUse" x1="2858.6104" y1="681.6378" x2="2912.0583" y2="681.6378">
		<stop  offset="0" style="stop-color:#6C471D"/>
		<stop  offset="4.053517e-03" style="stop-color:#734E23"/>
		<stop  offset="2.698976e-02" style="stop-color:#987241"/>
		<stop  offset="5.185240e-02" style="stop-color:#B8915B"/>
		<stop  offset="7.866801e-02" style="stop-color:#D2AA70"/>
		<stop  offset="0.1081" style="stop-color:#E6BD80"/>
		<stop  offset="0.1417" style="stop-color:#F4CB8B"/>
		<stop  offset="0.1829" style="stop-color:#FDD392"/>
		<stop  offset="0.2535" style="stop-color:#FFD594"/>
		<stop  offset="0.2892" style="stop-color:#EAC284"/>
		<stop  offset="0.3848" style="stop-color:#B8935C"/>
		<stop  offset="0.4572" style="stop-color:#997643"/>
		<stop  offset="0.4975" style="stop-color:#8D6B3A"/>
		<stop  offset="0.59" style="stop-color:#92703E"/>
		<stop  offset="0.7032" style="stop-color:#A17E4A"/>
		<stop  offset="0.8272" style="stop-color:#BA955E"/>
		<stop  offset="0.958" style="stop-color:#DCB579"/>
		<stop  offset="1" style="stop-color:#E9C183"/>
	</linearGradient>
	
		<path style="fill:url(#SVGID_00000152967604368806289110000003183746633230667922_);stroke:url(#SVGID_00000142872345375302037540000003085742243479741096_);stroke-miterlimit:10;" d="
		M2900.6,758h-30.4c-6.1,0-11-4.9-11-11V616.3c0-6,4.9-11,11-11h30.4c6.1,0,11,5,11,11V747C2911.6,753,2906.6,758,2900.6,758z"/>
	
		<linearGradient id="SVGID_00000054961036306569919460000016001241538885178011_" gradientUnits="userSpaceOnUse" x1="28.8503" y1="767.846" x2="663.3162" y2="767.846">
		<stop  offset="0" style="stop-color:#6C471D"/>
		<stop  offset="0.7091" style="stop-color:#DEC481"/>
	</linearGradient>
	
		<linearGradient id="SVGID_00000045619162133173403330000018183703648754642622_" gradientUnits="userSpaceOnUse" x1="28.3503" y1="767.846" x2="663.8162" y2="767.846">
		<stop  offset="0" style="stop-color:#6C471D"/>
		<stop  offset="4.053517e-03" style="stop-color:#734E23"/>
		<stop  offset="2.698976e-02" style="stop-color:#987241"/>
		<stop  offset="5.185240e-02" style="stop-color:#B8915B"/>
		<stop  offset="7.866801e-02" style="stop-color:#D2AA70"/>
		<stop  offset="0.1081" style="stop-color:#E6BD80"/>
		<stop  offset="0.1417" style="stop-color:#F4CB8B"/>
		<stop  offset="0.1829" style="stop-color:#FDD392"/>
		<stop  offset="0.2535" style="stop-color:#FFD594"/>
		<stop  offset="0.2892" style="stop-color:#EAC284"/>
		<stop  offset="0.3848" style="stop-color:#B8935C"/>
		<stop  offset="0.4572" style="stop-color:#997643"/>
		<stop  offset="0.4975" style="stop-color:#8D6B3A"/>
		<stop  offset="0.59" style="stop-color:#92703E"/>
		<stop  offset="0.7032" style="stop-color:#A17E4A"/>
		<stop  offset="0.8272" style="stop-color:#BA955E"/>
		<stop  offset="0.958" style="stop-color:#DCB579"/>
		<stop  offset="1" style="stop-color:#E9C183"/>
	</linearGradient>
	
		<path style="fill:url(#SVGID_00000054961036306569919460000016001241538885178011_);stroke:url(#SVGID_00000045619162133173403330000018183703648754642622_);stroke-miterlimit:10;" d="
		M420,749.5c5.4,17.7,27.1,21.6,41.4,16.7c1,15.2,17.7,28.5,37.5,24.6c-12.3,4.9-37,3.9-41.9-18.7C446.6,775.1,422,770.7,420,749.5
		L420,749.5z M566.9,780c16.8,19.7,102.5,183.3,32.5,174.9C560,950,521.5,848.3,436.7,851.2c55.2-16.7,104.5,37.3,104.5,37.3v-1.5
		c21.7,19.7,41.9,41.3,60.6,52.1C654.6,971.1,583.6,807,566.9,780L566.9,780z M102.6,728.4C58.3,827.7,154.3,900.4,244,838
		C178.5,923,29.1,846.2,102.6,728.4L102.6,728.4z M181.9,960.8c-16.8,54.5-54.7,81.6-85.3,71.7C44.9,1016.3,49.8,906.8,55.3,863
		c2-15.7,5.4-31.9,10.4-50.1C43,1114.2,163.2,1003.6,181.9,960.8z M123.8,769.2c-1,9.8,8.4,15.2,20.2,14.7l29.6-1l1,17.7
		c1,10.3,8.9,19.7,21.2,19.2c-6.4,3.9-26.1,2-26.1-23.6v-7.9l-25.6,0.5C131.2,789.3,120.3,782.9,123.8,769.2L123.8,769.2z
		 M269.7,713.2c13.3,3.9,59.6,13.8,110.4-14.2c0,0-21.2,34.9-98.6,31c5.9,21.6-3.5,32.4-3.5,32.4c3-23.6-2-31.4-12.3-50.6
		C265.7,711.7,267.7,712.2,269.7,713.2L269.7,713.2z M457.4,817.3c22.6,20.7,77.9,1.5,86.3-31.4
		C511.7,829.1,457.4,817.3,457.4,817.3L457.4,817.3z M636.1,850.7c-13.6-30.6-37.8-74.3-67.5-94.4c18.6,28.1,35.3,59.7,47.8,90.9
		c13.1,33.6,21.7,66.3,21.2,91.4c0,18.1-5.5,29.6-29.2,30.6c-47.3,2-68-67.8-124.9-94.4c-31.2-14.6-75-19.1-118.4-15.1h-2.5
		c20.6-9,43.3-16.6,64-20.1c1-1,2-2,3.5-3c-29.7-2.5-113.8,14.6-171.7,53.2c-72,48.7-61.4,141.1-130.9,160.2
		c-36.8,10-52.9-1-65-23.1C41.8,989.8,36.3,934,40.8,878.3c0,0-39.8,147.1,25.7,195.3c39.3,28.6,103.2,4,130.9-31.1
		c98.2,53.2,207,48.7,293.6,4c32.2-16.6,61.4-38.7,85.6-64.8l0,0c38.8,30.1,73-3.5,73-3.5C668.9,953.1,658.3,899.4,636.1,850.7
		L636.1,850.7z M195.4,711.1L195.4,711.1c9.1,0,17.6,6,18.1,13.6c1,7,1.5,14.1,2.5,21.6c8.6,0,17.1-0.5,25.7-0.5
		c8.6,0,16.6,6,18.1,13.6l0,0c1,8-5.5,14.6-14.6,15.1c-8.6,0.5-17.6,1-26.2,1c0.5,8,1.5,15.6,2,23.6c1,8.5-6.5,16.6-16.6,17.1l0,0
		c-10.6,1-19.6-6-20.1-14.6c-0.5-8.5-1.5-16.6-2-24.1c-9.6,0-19.1,0.5-29.2,1c-11.1,0.5-20.1-6-20.6-15.1l0,0
		c-0.5-8.5,8.6-16.1,19.1-16.1c9.6,0,19.1-0.5,28.7-0.5c-0.5-7.5-1-14.6-1.5-22.1C178.3,717.1,185.4,710.6,195.4,711.1L195.4,711.1z
		 M541.4,515.8c0,0,11.6-25.6-18.6-52.7c0,0,22.2,28.6,10.6,46.7C481,471.6,417,449.5,347.5,449.5c-174.3,0-315.3,141.1-315.3,314.3
		c0,29.1,4,57.2,11.6,84.4c12.1-55.7,30.2-140.6,86.1-165.7c27.7-13.1,62.5-8.5,89.1,4.5c0,0-12.6-17.1-47.8-20.1
		c6.5-17.1,16.1-18.6,40.8-14.1c33.2,6,30.7,4.5,46.3,29.1c15.1,7.5,29.7,11.5,45.8,13.1l2.5-36.7l7.1-0.5l-0.5-2
		c-8.6-49.7-34.2-49.2-58.4-48.2c-10.6,0-20.6,0.5-29.7-1.5c-12.6-3.5-27.2-14.6-27.7-28.6c-0.5-11.5,8.1-22.1,17.6-28.1
		c21.2-13.1,82.1-1,105.3,3c45.3,8,98.2,17.6,141.5,13.1C497.6,562,527.3,548.4,541.4,515.8L541.4,515.8z M650.7,851.2L650.7,851.2
		c8.1-27.6,12.6-56.7,12.6-87.4c0-71.3-24.2-137.6-64.5-190.3c-12.6-16.1-26.7-31.1-41.8-44.7c-17.1,35.6-51.9,50.7-93.2,55.2
		c-46.3,4.5-100.2-5-147.1-13.1c-31.2-5.5-58.9-10.5-77.1-10c-6,0.5-11.1,2-15.1,4.5c-3,1.5-5,4-6.5,6.5l0,0
		c-5.5,8,4.5,13.6,11.6,15.6c7.6,2,16.1,1.5,24.7,1.5c31.7-1,66.5,0.5,78.1,64.8l-10.6,3c5.5,1.5,9.6-0.5,14.6-0.5l2,7.5l0,0
		c0,0-7.6,4.5-18.6,4c0,0,10.1,2,19.6-0.5l2,6c-2.5,1-9.1,3.5-18.6,3c0,0,9.6,2,19.1,0l2,7c-3,1.5-8.6,3-16.1,2.5
		c0,0,8.1,1.5,17.1,0.5l1.5,4c13.1-3,24.7-7,40.8-14.1c2.5-16.1,1-16.1,31.7-24.1c20.1-5,33.7-1.5,39.8,15.1c0,0-31.7,3.5-47.3,13.1
		c0,0,33.2-8.5,53.9-8c18.6,2,35.8,8.5,53.9,24.1c7.6,6.5,13.6,13.6,20.1,20.6l18.1,24.1c0,0-11.1-39.7-59.4-70.8
		c0,0,55.9,12.1,77.1,77.8C609.4,766.8,632.6,817.6,650.7,851.2L650.7,851.2z M186.9,716.6c-3,1.5-5,4.5-4.5,8
		c0.5,7,1,14.1,1.5,21.6h0.5h3.5v-4c-0.5-7.5-1-14.6-1.5-22.1C185.9,719.1,186.4,717.6,186.9,716.6L186.9,716.6z M141,754.3
		c-3,2-5,5-5,9c0.5,8,10.1,12.1,17.1,11.5c9.6-0.5,19.1-1,29.2-1.5h3.5v3.5c1,8,1.5,16.1,2,24.1c0.5,8,9.1,12.1,16.1,11.5
		c5-0.5,10.1-3,12.6-7c-2.5,1.5-5.5,2.5-8.6,3c-7.1,0.5-15.6-4-16.1-11.5c-1-8-1.5-16.1-2-24.1v-3.5h-3.5c-10.1,0.5-19.6,1-29.7,1.5
		c-6.5,0-16.6-4-16.6-12C140,757.3,140.5,755.8,141,754.3L141,754.3z M219.1,771.9c8.6-0.5,17.1-0.5,25.7-1c4.5,0,9.1-2.5,10.6-6.5
		c-2,1.5-4,2-6.5,2c-8.6,0.5-17.6,1-26.2,1.5h-4L219.1,771.9L219.1,771.9z M483,755.3c10.1-0.5,20.6,6,23.7,15.1
		c3,9-2,17.6-12.1,19.1c-10.1,1.5-21.7-5-25.2-14.6C466.4,764.8,472.4,756.3,483,755.3L483,755.3z M474.5,763.3c-2,2.5-3,6.5-1.5,10
		c3,8,12.6,13.6,21.2,12.6c5-1,8.6-3.5,9.6-7.5c-2,2-4.5,3.5-8.1,4c-8.6,1.5-18.1-4-21.2-12C473.9,767.8,473.4,765.3,474.5,763.3
		L474.5,763.3z M429.1,737.2c-2,2.5-2.5,6-1,10c3.5,9.5,15.6,15.6,25.2,14.6c6-0.5,10.6-3.5,11.6-8c-2,2.5-5.5,4-10.1,4.5
		c-9.6,1-21.7-5-25.2-14.6C428.6,741.2,428.6,739.2,429.1,737.2L429.1,737.2z M453.8,706.1c-2,2.5-2.5,6-1,10
		c3,8.5,13.6,15.6,22.7,15.1c5.5,0,9.6-3,10.6-7c-2,2-5,3.5-8.6,3.5c-9.1,0.5-20.1-6.5-23.2-15.1
		C453.8,710.1,453.3,708.1,453.8,706.1L453.8,706.1z M495.1,733.7c-2,2.5-2.5,6-1,9.5c2.5,7.5,11.1,13.6,19.1,13.1
		c4.5-0.5,7.6-3,8.6-7c-1.5,2-4,3-7.1,3.5c-8.1,0.5-16.6-5.5-19.1-13.1C494.6,737.7,494.6,735.7,495.1,733.7L495.1,733.7z
		 M467.9,745.8c3.5,10-2.5,18.6-14.1,19.6c-12.1,1-25.2-6.5-29.2-17.1c-3.5-10.5,3.5-19.6,15.6-19.6
		C452.8,728.2,464.4,736.2,467.9,745.8L467.9,745.8z M463.9,699.1c11.1,0,21.7,8,25.2,17.6c3,9.5-2.5,17.6-13.1,18.1
		c-10.6,0.5-23.2-7.5-26.7-17.6C445.7,707.1,452.8,698.6,463.9,699.1L463.9,699.1z M524.8,742.2c2.5,9-2,16.6-11.1,17.6
		c-9.6,0.5-20.1-6-23.2-15.6c-3-9,2.5-17.1,12.1-17.6C512.2,726.7,521.8,733.7,524.8,742.2L524.8,742.2z M286.1,801.5
		c-10.1,2.5-8.6,11.5-4,12c6-2.5,21.2-7.5,32.7-8c5.5-0.5,10.6,0.5,13.1,3.5c3,3,3.5,8,1,16.6c4.5-9,6-18.6,5-22.6
		c-1-4-4.5-6-9.6-6.5c-4.5-1-11.1-0.5-18.1,0.5C299.7,798,292.6,799.5,286.1,801.5L286.1,801.5z M363.2,787.4
		c-10.1,2.5-8.6,11.5-4.5,12.1c6.5-2.5,21.7-8,33.2-8.5c5.5,0,10.1,1,13.1,4c2.5,3,3.5,8,1,16.6c4.5-9,6-18.6,5-22.6
		c-1-4-4.5-6-9.6-7c-5-0.5-11.1,0-18.1,1C376.7,783.9,369.2,785.4,363.2,787.4L363.2,787.4z"/>
	<g>
		<path class="st8" d="M1262.6,993.8v-49.1h10v40.7h24.8v8.3H1262.6z"/>
		<path class="st8" d="M1325.3,993.8v-49.5h36.7v8.4h-26.7v11h24.8v8.3h-24.8v13.5h27.6v8.3H1325.3z"/>
		<path class="st8" d="M1436.8,993.8h-10.9l-4.3-11.2h-19.8l-4.1,11.2h-10.6l19.3-49.5h10.6L1436.8,993.8z M1418.4,974.2l-6.8-18.4
			l-6.7,18.4H1418.4z"/>
		<path class="st8" d="M1462.9,993.8v-49.5h21c5.3,0,9.1,0.4,11.5,1.3c2.4,0.9,4.3,2.5,5.8,4.7c1.4,2.3,2.2,4.9,2.2,7.8
			c0,3.7-1.1,6.8-3.3,9.2c-2.2,2.4-5.4,3.9-9.8,4.6c2.2,1.3,3.9,2.6,5.4,4.2c1.4,1.5,3.3,4.2,5.7,8l6,9.7h-12l-7.2-10.8
			c-2.6-3.9-4.3-6.3-5.3-7.3c-0.9-1-1.9-1.7-3-2.1c-1.1-0.4-2.7-0.6-5-0.6h-2v20.7H1462.9z M1472.9,965.3h7.4c4.8,0,7.8-0.2,9-0.6
			c1.2-0.4,2.1-1.1,2.8-2.1c0.7-1,1-2.2,1-3.7c0-1.7-0.4-3-1.3-4c-0.9-1-2.1-1.7-3.8-1.9c-0.8-0.1-3.2-0.2-7.3-0.2h-7.8V965.3z"/>
		<path class="st8" d="M1533.6,993.8v-49.5h9.7l20.3,33.1v-33.1h9.3v49.5h-10l-19.9-32.3v32.3H1533.6z"/>
		<path class="st8" d="M1643,980.6v-9.5h18.6v9.5H1643z"/>
		<path class="st8" d="M1727.8,993.8v-49.5h16c6.1,0,10,0.2,11.9,0.7c2.8,0.7,5.2,2.4,7.1,4.8c1.9,2.5,2.9,5.7,2.9,9.6
			c0,3-0.6,5.6-1.7,7.7c-1.1,2.1-2.5,3.7-4.2,4.9c-1.7,1.2-3.4,2-5.2,2.3c-2.4,0.5-5.8,0.7-10.4,0.7h-6.5v18.7H1727.8z
			 M1737.8,952.7v14h5.5c3.9,0,6.6-0.3,7.9-0.8c1.3-0.5,2.4-1.3,3.1-2.4c0.8-1.1,1.1-2.4,1.1-3.8c0-1.8-0.5-3.3-1.6-4.5
			c-1.1-1.2-2.4-1.9-4-2.2c-1.2-0.2-3.6-0.3-7.2-0.3H1737.8z"/>
		<path class="st8" d="M1794.9,993.8v-49.1h10v40.7h24.8v8.3H1794.9z"/>
		<path class="st8" d="M1902.3,993.8h-10.9l-4.3-11.2h-19.8l-4.1,11.2h-10.6l19.3-49.5h10.6L1902.3,993.8z M1883.9,974.2l-6.8-18.4
			l-6.7,18.4H1883.9z"/>
		<path class="st8" d="M1935,993.8V973l-18.1-28.7h11.7l11.6,19.6l11.4-19.6h11.5l-18.2,28.7v20.8H1935z"/>
		<path class="st8" d="M2026.4,980.6v-9.5h18.6v9.5H2026.4z"/>
		<path class="st8" d="M2118.3,993.8l-11.8-49.5h10.2l7.5,34l9-34h11.9l8.7,34.6l7.6-34.6h10.1l-12,49.5h-10.6l-9.9-37l-9.8,37
			H2118.3z"/>
		<path class="st8" d="M2196.9,993.8v-49.5h10v49.5H2196.9z"/>
		<path class="st8" d="M2237.3,993.8v-49.5h9.7l20.3,33.1v-33.1h9.3v49.5h-10l-19.9-32.3v32.3H2237.3z"/>
		<path class="st8" d="M2346.7,980.6v-9.5h18.6v9.5H2346.7z"/>
		<path class="st8" d="M2431.5,993.8v-49.5h36.7v8.4h-26.7v11h24.8v8.3h-24.8v13.5h27.6v8.3H2431.5z"/>
		<path class="st8" d="M2543,993.8h-10.9l-4.3-11.2H2508l-4.1,11.2h-10.6l19.3-49.5h10.6L2543,993.8z M2524.6,974.2l-6.8-18.4
			l-6.7,18.4H2524.6z"/>
		<path class="st8" d="M2569.1,993.8v-49.5h21c5.3,0,9.1,0.4,11.5,1.3c2.4,0.9,4.3,2.5,5.8,4.7c1.4,2.3,2.2,4.9,2.2,7.8
			c0,3.7-1.1,6.8-3.3,9.2c-2.2,2.4-5.4,3.9-9.8,4.6c2.2,1.3,3.9,2.6,5.4,4.2c1.4,1.5,3.3,4.2,5.7,8l6,9.7h-12l-7.2-10.8
			c-2.6-3.9-4.3-6.3-5.3-7.3c-0.9-1-1.9-1.7-3-2.1c-1.1-0.4-2.7-0.6-5-0.6h-2v20.7H2569.1z M2579.1,965.3h7.4c4.8,0,7.8-0.2,9-0.6
			c1.2-0.4,2.1-1.1,2.8-2.1c0.7-1,1-2.2,1-3.7c0-1.7-0.4-3-1.3-4c-0.9-1-2.1-1.7-3.8-1.9c-0.8-0.1-3.2-0.2-7.3-0.2h-7.8V965.3z"/>
		<path class="st8" d="M2639.8,993.8v-49.5h9.7l20.3,33.1v-33.1h9.3v49.5h-10l-19.9-32.3v32.3H2639.8z"/>
	</g>
</g>
</svg>
