<?xml version="1.0" encoding="utf-8"?>
<!-- Generator: Adobe Illustrator 26.0.2, SVG Export Plug-In . SVG Version: 6.00 Build 0)  -->
<svg version="1.1" id="Layer_1" xmlns="http://www.w3.org/2000/svg" xmlns:xlink="http://www.w3.org/1999/xlink" x="0px" y="0px"
	 viewBox="0 0 3200 1535.7" style="enable-background:new 0 0 3200 1535.7;" xml:space="preserve">
<style type="text/css">
	.st0{fill:#FFFFFF;}
</style>
<g>
	<path class="st0" d="M2240.8,804.6l-85.4-42.7l85.5-43.2l0,0l288.4-141.1l-24.4-25.3c-11.6-11.6-21.6-5.5-32.4,0l-246.3,120.4l0,0
		l-4.5,2.3l-2.1,1v0l-117.3,59.2l-131-65.5l0,0l-29.1-14.6c-10.9-5.5-24.1-1.1-29.6,9.8l-11.6,23l41.1,20.7l0,0l2.8,1.4l17.3,8.7
		l0,0l86.9,43.4l-40.9,20.7l-50.1,24.3l-57.3,27.6l11.2,23.2c5.3,11,18.4,15.6,29.4,10.3l24.1-11.6l0,0l2.9-1.4l14.9-7.2l0-0.1
		l42.4-20.6c0.4-0.2,0.9-0.4,1.3-0.6l3.3-1.7l4.9-2.4c0.3-0.2,0.6-0.4,0.9-0.5l66.4-33.5l128.5,64.2l0,0L2261,868
		c10.9,5.4,24.1,1,29.5-9.9l11.5-23L2240.8,804.6L2240.8,804.6z"/>
	<path class="st0" d="M2453,652.4v196.5c0,12.1,9.8,21.9,21.9,21.9h25.6V674.3c0-12.1-9.8-21.9-21.9-21.9H2453z"/>
	<path class="st0" d="M1254.7,723.3c-4.1-12.8-10.1-24.5-18-35c-7.9-10.5-17.5-19.1-28.7-25.8c-11.2-6.7-23.9-10-38.1-10H961.8v0.1
		h-72.2c-10.9,0-18.9,1.5-24,4.5c-5.1,3-7.7,9-7.7,18l0.1,25.6l205.1-0.2v0h96.4c11.2,0,20.4,2.1,27.7,6.3
		c7.2,4.2,12.9,9.3,17.1,15.3c4.1,6,6.9,12.6,8.4,19.8c1.5,7.2,2.2,13.8,2.2,19.8c0,6-0.7,12.6-2.2,19.8c-1.5,7.2-4.3,13.8-8.4,19.8
		c-4.1,6-9.8,11.1-17.1,15.3c-7.3,4.2-16.5,6.3-27.7,6.3H905.4V739h-25.6c-12.1,0-21.9,9.8-21.9,21.9v85.8c0,7.4,2.8,13.5,8.5,18.5
		c4.2,3.7,9.7,5.5,15.2,5.5h293.2c13.5-0.7,25.5-4.4,36.1-11.3c10.5-6.8,19.5-15.4,26.9-25.8c7.4-10.3,13.1-21.8,17.1-34.5
		c4-12.7,5.9-25.2,5.9-37.5C1260.9,748.9,1258.8,736.2,1254.7,723.3z"/>
	<path class="st0" d="M1764.2,842.6c-1.3-2.8-3-5.4-4.9-7.8l-120.1-162.7c-5.6-7.7-12.9-13.7-21.8-18c-8.9-4.3-18.3-6.5-28.2-6.5
		c-10.6,0-20.4,2.4-29.7,7.3c-9.2,4.8-16.6,11.1-22.3,18.8l-133.8,181.9c-6.1,8.4-0.3,20.2,10,20.2h34.2l122.8-165.1
		c2-2.7,4.7-5.6,8.2-8.8c3.5-3.2,7-4.8,10.6-4.8c3.6,0,7.2,1.6,10.6,4.8c3.5,3.2,6.3,6.1,8.6,8.8l84.7,114.5h-118.1
		c-0.3,0-0.7,0.1-1,0.1h-22.4c-12.1,0-21.9,10.3-21.9,23v27.5h45.3h122.4h43.7c0.1,0,0.3,0.1,0.4,0.1h1.1c5.4,0,10.8-1.9,14.9-5.4
		c5.7-4.9,8.5-11.1,8.5-18.5C1766.2,848.5,1765.5,845.4,1764.2,842.6z"/>
	<g>
		<path class="st0" d="M3050.5,636.1c0-5.2,1-10.1,3-14.8c2-4.6,4.7-8.6,8.2-12c3.4-3.4,7.5-6.1,12.1-8.1c4.6-2,9.5-3,14.8-3
			c5.2,0,10.1,1,14.8,3c4.6,2,8.6,4.7,12.1,8.1c3.4,3.4,6.2,7.4,8.2,12c2,4.6,3,9.5,3,14.8c0,5.2-1,10.1-3,14.7
			c-2,4.6-4.7,8.5-8.2,11.9c-3.4,3.4-7.5,6.1-12.1,8c-4.6,1.9-9.5,2.9-14.8,2.9c-5.2,0-10.1-1-14.8-2.9c-4.6-1.9-8.6-4.6-12.1-8
			c-3.4-3.4-6.2-7.4-8.2-11.9C3051.5,646.3,3050.5,641.4,3050.5,636.1z M3056.5,636.1c0,4.3,0.8,8.5,2.5,12.3
			c1.7,3.9,3.9,7.3,6.8,10.3c2.9,2.9,6.3,5.3,10.2,6.9c3.9,1.7,8.1,2.5,12.5,2.5c4.4,0,8.6-0.8,12.5-2.5c3.9-1.7,7.3-4,10.2-6.9
			c2.9-2.9,5.2-6.4,6.8-10.3c1.7-3.9,2.5-8,2.5-12.3c0-4.4-0.8-8.6-2.5-12.5c-1.7-3.9-3.9-7.3-6.8-10.2c-2.9-2.9-6.3-5.2-10.2-6.8
			c-3.9-1.7-8.1-2.5-12.5-2.5c-4.4,0-8.6,0.8-12.5,2.5c-3.9,1.7-7.3,3.9-10.2,6.8c-2.9,2.9-5.2,6.3-6.8,10.2
			C3057.3,627.5,3056.5,631.7,3056.5,636.1z M3097.7,657l-9.2-16.5h-6V657h-10.2v-42.7h18.3c2,0,3.9,0.2,5.8,0.7
			c1.9,0.4,3.6,1.2,5.2,2.2c1.6,1,2.8,2.4,3.8,4.1c0.9,1.7,1.4,3.9,1.4,6.4c0,2.9-0.8,5.3-2.4,7.2c-1.6,1.9-3.6,3.3-6.1,4.2l11.3,18
			H3097.7z M3090.4,633.1c1.6,0,3-0.5,4.3-1.5c1.3-1,1.9-2.3,1.9-4c0-1.8-0.7-3.1-2.2-3.8c-1.4-0.8-2.8-1.2-4-1.2h-7.8v10.5H3090.4z
			"/>
	</g>
	<path class="st0" d="M3047.8,724.1c-4-12.7-9.6-24.2-17-34.5c-7.4-10.3-16.4-18.9-26.9-25.8c-10.6-6.8-22.6-10.6-36.1-11.3h-78.1
		v48h62.8c11.2,0,20.4,2.1,27.7,6.3c7.2,4.2,12.9,9.3,17,15.3c4.1,6,6.9,12.6,8.4,19.8c1.5,7.2,2.2,13.8,2.2,19.8
		c0,6-0.7,12.6-2.2,19.8c-1.5,7.2-4.3,13.8-8.4,19.8c-4.1,6-9.8,11.1-17,15.3c-7.3,4.2-16.5,6.3-27.7,6.3h-199.7
		c-11.5,0-20.8-2.1-27.9-6.3c-7.1-4.2-12.7-9.3-16.8-15.3c-4.1-6-6.9-12.6-8.4-19.8c-1.5-7.2-2.2-13.8-2.2-19.8
		c0-6,0.7-12.6,2.2-19.8c1.5-7.2,4.3-13.8,8.4-19.8c4.1-6,9.7-11.1,16.8-15.3c7.1-4.2,16.4-6.3,27.9-6.3h54.5v-48h-64.9
		c-14.2,0-26.9,3.3-38.1,10c-11.2,6.7-20.8,15.3-28.7,25.8c-7.9,10.5-13.9,22.2-18.1,35c-4.1,12.8-6.2,25.6-6.2,38.3
		c0,12.4,2,24.9,5.9,37.5c4,12.7,9.6,24.2,17.1,34.5c7.4,10.3,16.4,18.9,26.9,25.8c10.5,6.8,22.6,10.6,36.1,11.3h225.4
		c14.2,0,26.9-3.3,38.1-10c11.2-6.7,20.8-15.3,28.7-25.8c7.9-10.5,13.9-22.2,18-35c4.1-12.8,6.2-25.6,6.2-38.3
		C3053.7,749.3,3051.8,736.7,3047.8,724.1z"/>
	<path class="st0" d="M2863.3,758.3h-29c-6,0-11-5-11-11V620.9c0-6,5-11,11-11h29c6,0,11,5,11,11v126.4
		C2874.3,753.3,2869.4,758.3,2863.3,758.3z"/>
	<path class="st0" d="M453.5,750.1c5.3,17.2,26.3,21,40.2,16.2c1,14.8,17.2,27.7,36.4,23.9c-12,4.8-35.9,3.8-40.7-18.1
		C479.3,774.9,455.4,770.6,453.5,750.1L453.5,750.1z M596.2,779.7c16.3,19.1,99.6,178.1,31.6,170c-38.3-4.8-75.7-103.6-158-100.7
		c53.6-16.2,101.5,36.3,101.5,36.3v-1.4c21.1,19.1,40.7,40.1,58.9,50.6C681.4,965.4,612.5,805.9,596.2,779.7L596.2,779.7z
		 M145.1,729.5c-43,96.4,50.3,167.1,137.4,106.5C218.8,918.6,73.7,844,145.1,729.5L145.1,729.5z M222.2,955.3
		c-16.3,53-53.2,79.3-82.8,69.7C89,1009.3,93.8,902.8,99.1,860.3c1.9-15.3,5.3-31,10.1-48.7C87.2,1104.4,204,996.9,222.2,955.3z
		 M165.7,769.1c-1,9.5,8.1,14.8,19.6,14.3l28.7-1l1,17.2c1,10,8.6,19.1,20.6,18.6c-6.2,3.8-25.4,1.9-25.4-22.9v-7.6l-24.9,0.5
		C172.9,788.7,162.3,782.5,165.7,769.1L165.7,769.1z M307.4,714.7c12.9,3.8,57.9,13.4,107.3-13.8c0,0-20.6,33.9-95.8,30.1
		c5.7,21-3.4,31.5-3.4,31.5c2.9-22.9-1.9-30.6-12-49.2C303.6,713.3,305.5,713.8,307.4,714.7L307.4,714.7z M489.9,815.9
		c21.9,20.2,75.7,1.4,83.8-30.6C542.6,827.4,489.9,815.9,489.9,815.9L489.9,815.9z M663.5,848.3c-13.2-29.8-36.7-72.2-65.6-91.7
		c18.1,27.3,34.3,58.1,46.5,88.3c12.7,32.7,21,64.4,20.6,88.8c0,17.6-5.4,28.8-28.4,29.8c-46,2-66.1-65.9-121.4-91.7
		c-30.3-14.1-72.9-18.5-115-14.6h-2.4c20.1-8.8,42.1-16.1,62.1-19.5c1-1,2-2,3.4-2.9c-28.9-2.4-110.6,14.1-166.9,51.7
		c-70,47.3-59.7,137.1-127.2,155.6c-35.7,9.8-51.4-1-63.1-22.4c-20.1-36.1-25.4-90.3-21-144.4c0,0-38.7,142.9,25,189.8
		c38.2,27.8,100.3,3.9,127.2-30.2c95.4,51.7,201.1,47.3,285.3,3.9c31.3-16.1,59.7-37.6,83.2-62.9l0,0c37.7,29.3,71-3.4,71-3.4
		C695.3,947.9,685,895.7,663.5,848.3L663.5,848.3z M235.3,712.7L235.3,712.7c8.8,0,17.1,5.9,17.6,13.2c1,6.8,1.5,13.7,2.4,21
		c8.3,0,16.6-0.5,25-0.5c8.3,0,16.1,5.9,17.6,13.2l0,0c1,7.8-5.4,14.1-14.2,14.6c-8.3,0.5-17.1,1-25.4,1c0.5,7.8,1.5,15.1,2,22.9
		c1,8.3-6.4,16.1-16.1,16.6l0,0c-10.3,1-19.1-5.9-19.6-14.1c-0.5-8.3-1.5-16.1-2-23.4c-9.3,0-18.6,0.5-28.4,1
		c-10.8,0.5-19.6-5.9-20.1-14.6l0,0c-0.5-8.3,8.3-15.6,18.6-15.6c9.3,0,18.6-0.5,27.9-0.5c-0.5-7.3-1-14.1-1.5-21.5
		C218.7,718.6,225.5,712.2,235.3,712.7L235.3,712.7z M571.5,523c0,0,11.3-24.9-18.1-51.2c0,0,21.5,27.8,10.3,45.4
		c-50.9-37.1-113-58.5-180.6-58.5c-169.3,0-306.3,137.1-306.3,305.4c0,28.3,3.9,55.6,11.3,82c11.7-54.1,29.4-136.6,83.7-161
		c26.9-12.7,60.7-8.3,86.6,4.4c0,0-12.2-16.6-46.5-19.5c6.4-16.6,15.7-18,39.6-13.7c32.3,5.9,29.8,4.4,45,28.3
		c14.7,7.3,28.9,11.2,44.5,12.7l2.4-35.6l6.9-0.5l-0.5-2c-8.3-48.3-33.3-47.8-56.8-46.8c-10.3,0-20.1,0.5-28.9-1.5
		c-12.2-3.4-26.4-14.1-26.9-27.8c-0.5-11.2,7.8-21.5,17.1-27.3c20.6-12.7,79.8-1,102.3,2.9c44,7.8,95.4,17.1,137.5,12.7
		C528.9,567.8,557.8,554.7,571.5,523L571.5,523z M677.7,848.8L677.7,848.8c7.8-26.8,12.2-55.1,12.2-84.9
		c0-69.3-23.5-133.7-62.6-184.9c-12.2-15.6-25.9-30.2-40.6-43.4c-16.6,34.6-50.4,49.3-90.5,53.7c-45,4.4-97.4-4.9-142.9-12.7
		c-30.3-5.4-57.3-10.2-74.9-9.8c-5.9,0.5-10.8,2-14.7,4.4c-2.9,1.5-4.9,3.9-6.4,6.3l0,0c-5.4,7.8,4.4,13.2,11.3,15.1
		c7.3,2,15.7,1.5,24,1.5c30.8-1,64.6,0.5,75.8,62.9l-10.3,2.9c5.4,1.5,9.3-0.5,14.2-0.5l2,7.3l0,0c0,0-7.3,4.4-18.1,3.9
		c0,0,9.8,2,19.1-0.5l2,5.9c-2.4,1-8.8,3.4-18.1,2.9c0,0,9.3,2,18.6,0l2,6.8c-2.9,1.5-8.3,2.9-15.7,2.4c0,0,7.8,1.5,16.6,0.5
		l1.5,3.9c12.7-2.9,24-6.8,39.6-13.7c2.4-15.6,1-15.6,30.8-23.4c19.6-4.9,32.8-1.5,38.7,14.6c0,0-30.8,3.4-46,12.7
		c0,0,32.3-8.3,52.4-7.8c18.1,2,34.7,8.3,52.4,23.4c7.3,6.3,13.2,13.2,19.6,20l17.6,23.4c0,0-10.8-38.5-57.7-68.8
		c0,0,54.3,11.7,74.9,75.6C637.5,766.9,660.1,816.1,677.7,848.8L677.7,848.8z M227,718.1c-2.9,1.5-4.9,4.4-4.4,7.8
		c0.5,6.8,1,13.7,1.5,21h0.5h3.4V743c-0.5-7.3-1-14.1-1.5-21.5C226,720.5,226.5,719.1,227,718.1L227,718.1z M182.5,754.7
		c-2.9,2-4.9,4.9-4.9,8.8c0.5,7.8,9.8,11.7,16.6,11.2c9.3-0.5,18.6-1,28.4-1.5h3.4v3.4c1,7.8,1.5,15.6,2,23.4
		c0.5,7.8,8.8,11.7,15.7,11.2c4.9-0.5,9.8-2.9,12.2-6.8c-2.4,1.5-5.4,2.4-8.3,2.9c-6.9,0.5-15.2-3.9-15.7-11.2
		c-1-7.8-1.5-15.6-2-23.4v-3.4h-3.4c-9.8,0.5-19.1,1-28.9,1.5c-6.4,0-16.1-3.9-16.1-11.7C181.5,757.6,182,756.1,182.5,754.7
		L182.5,754.7z M258.3,771.8c8.3-0.5,16.6-0.5,25-1c4.4,0,8.8-2.4,10.3-6.3c-2,1.5-3.9,2-6.4,2c-8.3,0.5-17.1,1-25.4,1.5h-3.9
		L258.3,771.8L258.3,771.8z M514.7,755.7c9.8-0.5,20.1,5.9,23,14.6c2.9,8.8-2,17.1-11.7,18.5c-9.8,1.5-21-4.9-24.5-14.1
		C498.6,764.9,504.4,756.6,514.7,755.7L514.7,755.7z M506.4,763.5c-2,2.4-2.9,6.3-1.5,9.8c2.9,7.8,12.2,13.2,20.6,12.2
		c4.9-1,8.3-3.4,9.3-7.3c-2,2-4.4,3.4-7.8,3.9c-8.3,1.5-17.6-3.9-20.6-11.7C505.9,767.8,505.4,765.4,506.4,763.5L506.4,763.5z
		 M462.4,738.1c-2,2.4-2.4,5.9-1,9.8c3.4,9.3,15.2,15.1,24.5,14.1c5.9-0.5,10.3-3.4,11.3-7.8c-2,2.4-5.4,3.9-9.8,4.4
		c-9.3,1-21-4.9-24.5-14.1C461.9,742,461.9,740,462.4,738.1L462.4,738.1z M486.3,707.8c-2,2.4-2.4,5.9-1,9.8
		c2.9,8.3,13.2,15.1,22,14.6c5.4,0,9.3-2.9,10.3-6.8c-2,2-4.9,3.4-8.3,3.4c-8.8,0.5-19.6-6.3-22.5-14.6
		C486.3,711.7,485.9,709.8,486.3,707.8L486.3,707.8z M526.5,734.7c-2,2.4-2.4,5.9-1,9.3c2.4,7.3,10.8,13.2,18.6,12.7
		c4.4-0.5,7.3-2.9,8.3-6.8c-1.5,2-3.9,2.9-6.9,3.4c-7.8,0.5-16.1-5.4-18.6-12.7C526,738.6,526,736.6,526.5,734.7L526.5,734.7z
		 M500,746.4c3.4,9.8-2.4,18-13.7,19c-11.7,1-24.5-6.3-28.4-16.6c-3.4-10.2,3.4-19,15.2-19C485.4,729.3,496.6,737.1,500,746.4
		L500,746.4z M496.1,701c10.8,0,21,7.8,24.5,17.1c2.9,9.3-2.4,17.1-12.7,17.6c-10.3,0.5-22.5-7.3-25.9-17.1
		C478.5,708.8,485.4,700.5,496.1,701L496.1,701z M555.3,743c2.4,8.8-2,16.1-10.8,17.1c-9.3,0.5-19.6-5.9-22.5-15.1
		c-2.9-8.8,2.4-16.6,11.7-17.1C543.1,727.8,552.4,734.7,555.3,743L555.3,743z M323.4,800.5c-9.8,2.4-8.3,11.2-3.9,11.7
		c5.9-2.4,20.6-7.3,31.8-7.8c5.4-0.5,10.3,0.5,12.7,3.4c2.9,2.9,3.4,7.8,1,16.1c4.4-8.8,5.9-18.1,4.9-22c-1-3.9-4.4-5.9-9.3-6.3
		c-4.4-1-10.8-0.5-17.6,0.5C336.6,797.1,329.8,798.6,323.4,800.5L323.4,800.5z M398.3,786.9c-9.8,2.4-8.3,11.2-4.4,11.7
		c6.4-2.4,21-7.8,32.3-8.3c5.4,0,9.8,1,12.7,3.9c2.4,2.9,3.4,7.8,1,16.1c4.4-8.8,5.9-18.1,4.9-22c-1-3.9-4.4-5.9-9.3-6.8
		c-4.9-0.5-10.8,0-17.6,1C411.5,783.5,404.1,784.9,398.3,786.9L398.3,786.9z"/>
	<g>
		<path class="st0" d="M1272.2,987.4v-47.7h9.7v39.6h24.1v8.1H1272.2z"/>
		<path class="st0" d="M1333.1,987.4v-48.1h35.7v8.1h-25.9v10.7h24.1v8.1h-24.1v13.1h26.9v8.1H1333.1z"/>
		<path class="st0" d="M1441.4,987.4h-10.6l-4.2-10.9h-19.2l-4,10.9h-10.3l18.7-48.1h10.3L1441.4,987.4z M1423.5,968.4l-6.6-17.8
			l-6.5,17.8H1423.5z"/>
		<path class="st0" d="M1466.8,987.4v-48.1h20.4c5.1,0,8.9,0.4,11.2,1.3c2.3,0.9,4.2,2.4,5.6,4.6c1.4,2.2,2.1,4.7,2.1,7.6
			c0,3.6-1.1,6.6-3.2,8.9c-2.1,2.4-5.3,3.8-9.5,4.4c2.1,1.2,3.8,2.6,5.2,4c1.4,1.5,3.2,4.1,5.5,7.8l5.9,9.4h-11.6l-7-10.5
			c-2.5-3.7-4.2-6.1-5.1-7.1c-0.9-1-1.9-1.6-2.9-2c-1-0.4-2.7-0.5-4.9-0.5h-2v20.1H1466.8z M1476.5,959.6h7.2c4.7,0,7.6-0.2,8.7-0.6
			c1.2-0.4,2.1-1.1,2.7-2c0.7-1,1-2.2,1-3.6c0-1.6-0.4-2.9-1.3-3.9c-0.9-1-2.1-1.6-3.7-1.9c-0.8-0.1-3.1-0.2-7.1-0.2h-7.6V959.6z"/>
		<path class="st0" d="M1535.5,987.4v-48.1h9.4l19.7,32.1v-32.1h9v48.1h-9.7l-19.4-31.4v31.4H1535.5z"/>
		<path class="st0" d="M1641.7,974.6v-9.2h18.1v9.2H1641.7z"/>
		<path class="st0" d="M1724.2,987.4v-48.1h15.6c5.9,0,9.8,0.2,11.5,0.7c2.8,0.7,5.1,2.3,6.9,4.7c1.9,2.4,2.8,5.5,2.8,9.4
			c0,2.9-0.5,5.4-1.6,7.4c-1.1,2-2.4,3.6-4.1,4.7c-1.6,1.1-3.3,1.9-5,2.3c-2.3,0.5-5.7,0.7-10.1,0.7h-6.3v18.1H1724.2z
			 M1733.9,947.4v13.6h5.3c3.8,0,6.4-0.3,7.7-0.8c1.3-0.5,2.3-1.3,3-2.4c0.7-1.1,1.1-2.3,1.1-3.7c0-1.8-0.5-3.2-1.5-4.3
			c-1-1.1-2.3-1.9-3.9-2.1c-1.2-0.2-3.5-0.3-7-0.3H1733.9z"/>
		<path class="st0" d="M1789.4,987.4v-47.7h9.7v39.6h24.1v8.1H1789.4z"/>
		<path class="st0" d="M1893.7,987.4h-10.6l-4.2-10.9h-19.2l-4,10.9h-10.3l18.7-48.1h10.3L1893.7,987.4z M1875.8,968.4l-6.6-17.8
			l-6.5,17.8H1875.8z"/>
		<path class="st0" d="M1925.5,987.4v-20.2l-17.6-27.8h11.4l11.3,19l11.1-19h11.2l-17.7,27.9v20.2H1925.5z"/>
		<path class="st0" d="M2014.3,974.6v-9.2h18.1v9.2H2014.3z"/>
		<path class="st0" d="M2103.6,987.4l-11.5-48.1h9.9l7.2,33l8.8-33h11.5l8.4,33.6l7.4-33.6h9.8l-11.7,48.1h-10.3l-9.6-35.9
			l-9.5,35.9H2103.6z"/>
		<path class="st0" d="M2180,987.4v-48.1h9.7v48.1H2180z"/>
		<path class="st0" d="M2219.2,987.4v-48.1h9.4l19.7,32.1v-32.1h9v48.1h-9.7l-19.4-31.4v31.4H2219.2z"/>
		<path class="st0" d="M2325.5,974.6v-9.2h18.1v9.2H2325.5z"/>
		<path class="st0" d="M2407.9,987.4v-48.1h35.7v8.1h-25.9v10.7h24.1v8.1h-24.1v13.1h26.9v8.1H2407.9z"/>
		<path class="st0" d="M2516.2,987.4h-10.6l-4.2-10.9h-19.2l-4,10.9H2468l18.7-48.1h10.3L2516.2,987.4z M2498.4,968.4l-6.6-17.8
			l-6.5,17.8H2498.4z"/>
		<path class="st0" d="M2541.6,987.4v-48.1h20.4c5.1,0,8.9,0.4,11.2,1.3c2.3,0.9,4.2,2.4,5.6,4.6c1.4,2.2,2.1,4.7,2.1,7.6
			c0,3.6-1.1,6.6-3.2,8.9c-2.1,2.4-5.3,3.8-9.5,4.4c2.1,1.2,3.8,2.6,5.2,4c1.4,1.5,3.2,4.1,5.5,7.8l5.9,9.4h-11.6l-7-10.5
			c-2.5-3.7-4.2-6.1-5.1-7.1c-0.9-1-1.9-1.6-2.9-2c-1-0.4-2.7-0.5-4.9-0.5h-2v20.1H2541.6z M2551.3,959.6h7.2c4.7,0,7.6-0.2,8.7-0.6
			c1.2-0.4,2.1-1.1,2.7-2s1-2.2,1-3.6c0-1.6-0.4-2.9-1.3-3.9c-0.9-1-2.1-1.6-3.7-1.9c-0.8-0.1-3.1-0.2-7.1-0.2h-7.6V959.6z"/>
		<path class="st0" d="M2610.3,987.4v-48.1h9.4l19.7,32.1v-32.1h9v48.1h-9.7l-19.4-31.4v31.4H2610.3z"/>
	</g>
</g>
</svg>
