<?xml version="1.0" encoding="utf-8"?>
<!-- Generator: Adobe Illustrator 26.0.2, SVG Export Plug-In . SVG Version: 6.00 Build 0)  -->
<svg version="1.1" id="katman_1" xmlns="http://www.w3.org/2000/svg" xmlns:xlink="http://www.w3.org/1999/xlink" x="0px" y="0px"
	 viewBox="0 0 400 400" style="enable-background:new 0 0 400 400;" xml:space="preserve">
<style type="text/css">
	.st0{fill:#FFFFFF;}
</style>
<g>
	<path class="st0" d="M33,224.4l1.2-1.9l80.3-125.3c1.2-1.9,3.7-1.9,4.9,0.6c13.6,30.3,24.7,67.3,19.8,90.8
		c-2.5,9.9-8.6,22.8-16.1,34.6c-0.6,1.9-1.9,3.7-3.1,4.9c-0.6,0.6-1.2,1.2-2.5,1.2H34.8C33,228.7,31.7,226.2,33,224.4z"/>
	<path class="st0" d="M390.5,247.9v19.8c0,1.2-0.6,1.9-1.9,2.5c-6.2,2.5-27.8,12.3-36.4,24.7c-22.8,31.5-40.1,76.6-78.4,76.6H112.6
		C55.8,371.3,9.5,325,9.5,267.6v-1.9c0-1.2,1.2-2.5,2.5-2.5h90.8c1.9,0,3.1,1.9,3.1,3.1c-0.6,5.6,0.6,11.7,3.1,17.3
		c5.6,11.1,16.7,17.3,28.4,17.3h44.5v-34.6h-43.8c-2.5,0-3.7-2.5-2.5-4.3c0.6-0.6,1.2-1.2,1.9-2.5c4.3-6.2,9.9-14.8,16.1-25.3
		c4.3-6.8,8-14.8,11.1-22.2c0.6-1.2,1.2-2.5,1.9-4.3c0.6-2.5,1.9-4.9,2.5-6.8c0.6-1.9,1.2-3.7,1.9-5.6c1.2-6.2,1.9-13,1.9-20.4
		c0-2.5,0-5.6-0.6-8.6c0-3.1-0.6-6.2-0.6-9.3c0-2.5-0.6-5.6-1.2-8c-0.6-4.3-1.2-8-2.5-12.3l-0.6-1.2c-0.6-2.5-1.2-5.6-2.5-8
		c-2.5-8.6-5.6-17.3-8.6-24.7c-1.2-3.1-2.5-6.2-3.7-9.3c-1.9-4.3-3.7-8.6-5.6-12.3c-0.6-1.9-1.9-3.1-2.5-4.9
		c-0.6-1.9-1.9-3.7-2.5-5.6c-0.6-1.2-1.2-2.5-1.9-3.7l-5.6-9.9c-0.6-1.2,0.6-3.1,1.9-2.5l34,9.3l0,0l0,0l4.3,1.2l4.9,1.2l1.9,0.6
		V46.6c0-9.9,8-17.9,17.3-17.9c4.9,0,9.3,1.9,12.3,4.9S216,41,216,45.9v29.6l3.7,1.2c0,0,0.6,0,0.6,0.6c0.6,0.6,1.9,1.9,3.7,3.1
		c1.2,1.2,2.5,2.5,4.3,3.7c3.1,2.5,7.4,6.2,11.7,9.9c1.2,1.2,2.5,1.9,3.1,3.1c5.6,4.9,11.7,11.1,17.9,17.9c1.9,1.9,3.1,3.7,4.9,5.6
		c1.9,1.9,3.1,4.3,4.9,6.2c1.9,2.5,4.3,5.6,6.2,8c0.6,1.2,1.9,2.5,2.5,4.3c2.5,3.7,4.3,7.4,6.8,11.1c0.6,1.9,1.9,3.7,2.5,5.6
		c2.5,4.9,4.3,9.9,4.9,15.4c0.6,1.2,0.6,2.5,0.6,3.1l0,0c0.6,1.2,0.6,3.1,0.6,4.9c0.6,5.6,0,10.5-0.6,16.1c-0.6,2.5-1.2,4.3-1.9,6.8
		c-0.6,1.9-1.2,4.3-2.5,6.8c-1.9,4.3-4.3,8.6-6.8,13c-0.6,1.2-1.9,3.1-3.1,4.9c-1.2,1.9-2.5,3.1-3.1,4.9c-1.2,1.9-3.1,3.7-4.3,5.6
		c-1.2,1.9-2.5,3.7-4.3,5.6c-1.9,2.5-4.3,4.9-6.2,7.4c-1.2,1.2-2.5,3.1-4.3,4.3c-1.2,1.2-2.5,3.1-4.3,4.3c-1.9,1.9-3.7,3.7-5.6,4.9
		l-3.7,3.1c-0.6,0.6-1.2,0.6-1.9,0.6h-27.2v34.6h34c7.4,0,14.8-2.5,20.4-7.4c1.9-1.9,10.5-9.3,21-20.4c0.6-0.6,0.6-0.6,1.2-0.6
		l93.9-27.2C389.2,244.8,390.5,246,390.5,247.9z"/>
</g>
</svg>
