<?xml version="1.0" encoding="utf-8"?>
<!-- Generator: Adobe Illustrator 26.0.2, SVG Export Plug-In . SVG Version: 6.00 Build 0)  -->
<svg version="1.1" id="Layer_1" xmlns="http://www.w3.org/2000/svg" xmlns:xlink="http://www.w3.org/1999/xlink" x="0px" y="0px"
	 viewBox="0 0 1000 630" style="enable-background:new 0 0 1000 630;" xml:space="preserve">
<style type="text/css">
	.st0{fill:#0E6ED4;}
</style>
<g transform="matrix(1,0,0,1,194.28700256347656,119)">
	<path class="st0" d="M10.4,9.3c163.1-159.7,427.5-159.7,590.4,0l19.5,19.2c8.2,7.9,8.2,21,0,29l-67,65.5c-4.1,4-10.7,4-14.8,0
		l-27-26.4C397.9-14.8,213.3-14.8,99.6,96.6l-29,28.3c-4.1,4-10.7,4-14.8,0l-67.1-65.7c-8.2-7.9-8.2-21,0-29L10.4,9.3z M739.8,145.2
		l59.8,58.5c8.2,7.9,8.2,21,0,29L530.2,496.5c-8.2,7.9-21.4,7.9-29.5,0L309.4,309.2c-2-2-5.4-2-7.5,0L110.8,496.5
		c-8.2,7.9-21.4,7.9-29.5,0l-269.4-263.8c-8.2-7.9-8.2-21,0-29l59.8-58.5c8.2-7.9,21.4-7.9,29.5,0L92.4,332.4c2,2,5.4,2,7.5,0
		l191.3-187.2c8.2-7.9,21.4-7.9,29.5,0l191.3,187.2c2,2,5.4,2,7.5,0l191.3-187.2C718.4,137.2,731.7,137.2,739.8,145.2z"/>
</g>
</svg>
